<?xml version="1.0" standalone="no"?>
<!DOCTYPE svg PUBLIC "-//W3C//DTD SVG 20010904//EN"
 "http://www.w3.org/TR/2001/REC-SVG-20010904/DTD/svg10.dtd">
<svg version="1.0" xmlns="http://www.w3.org/2000/svg"
 width="1024.000000pt" height="1536.000000pt" viewBox="0 0 1024.000000 1536.000000"
 preserveAspectRatio="xMidYMid meet">

<g transform="translate(0.000000,1536.000000) scale(0.100000,-0.100000)"
fill="#000000" stroke="none">
<path d="M6580 12984 c-227 -20 -362 -41 -540 -81 -93 -22 -120 -32 -144 -55
-26 -27 -28 -33 -22 -82 9 -80 38 -488 34 -491 -2 -2 -37 3 -78 10 -232 40
-373 50 -720 50 -369 0 -432 -6 -690 -61 -154 -33 -367 -92 -410 -114 -69 -35
-150 -143 -150 -198 0 -16 -10 -20 -57 -25 -32 -3 -59 -2 -61 3 -2 5 -16 27
-32 49 -42 58 -98 84 -169 79 -31 -2 -64 -8 -73 -12 -15 -7 -18 -3 -18 18 0
40 -39 114 -74 141 -47 36 -118 51 -168 35 -70 -20 -90 -40 -143 -137 0 -1
-19 4 -40 12 -140 50 -275 -42 -275 -187 l0 -53 -52 0 c-29 0 -65 -3 -80 -7
-23 -7 -29 -3 -52 37 -77 131 -237 150 -334 40 -24 -27 -44 -63 -51 -90 l-11
-45 -63 0 c-66 0 -129 -23 -159 -56 -39 -44 -61 -114 -55 -180 4 -53 11 -71
41 -113 l37 -50 -25 -44 c-52 -87 -29 -198 54 -270 34 -29 38 -36 26 -46 -8
-7 -30 -49 -49 -94 -19 -46 -68 -132 -109 -192 -268 -393 -479 -870 -587
-1325 -93 -392 -129 -839 -97 -1200 49 -550 177 -1001 423 -1483 171 -335 485
-743 775 -1007 364 -332 712 -551 1202 -754 541 -226 899 -291 1586 -290 361
0 438 5 678 45 383 64 876 237 1232 433 510 281 920 634 1258 1082 161 215
341 526 435 754 142 343 241 732 289 1125 20 167 17 653 -6 835 -59 484 -185
903 -393 1312 -74 146 -173 312 -244 410 l-49 68 38 34 c44 40 87 114 96 168
15 84 -39 182 -141 258 -81 60 -251 145 -382 191 l-93 32 6 51 c24 183 132
821 192 1129 17 86 17 88 -3 115 -11 15 -37 35 -58 45 -125 60 -392 125 -665
162 -120 17 -660 29 -780 19z m705 -143 c131 -16 318 -49 410 -72 86 -22 265
-78 265 -83 0 -2 -14 -70 -30 -152 -43 -209 -106 -566 -127 -714 -9 -69 -17
-126 -18 -127 0 -1 -34 8 -75 21 -110 35 -377 92 -520 111 -167 22 -566 31
-745 16 -112 -10 -244 -26 -360 -44 -6 -1 -14 93 -21 233 -11 216 -24 432 -40
651 l-7 86 73 17 c92 20 324 54 455 66 126 11 621 5 740 -9z m-1817 -702 c152
-11 438 -52 450 -64 4 -4 8 -107 10 -230 l4 -223 -29 -6 c-15 -3 -59 -10 -97
-16 -251 -39 -407 -101 -499 -199 -57 -61 -77 -108 -77 -180 1 -175 191 -334
488 -410 113 -28 137 -46 75 -56 -74 -13 -102 -26 -142 -70 -23 -25 -45 -62
-52 -87 -19 -67 -17 -252 4 -326 38 -140 125 -262 217 -304 48 -22 49 -23 60
-86 14 -81 52 -203 91 -288 33 -74 123 -216 179 -284 38 -45 38 -46 33 -113
-6 -76 5 -62 -133 -164 -36 -27 -93 -70 -127 -97 -53 -42 -88 -57 -264 -117
-410 -140 -549 -242 -668 -490 l-47 -96 -54 86 c-135 213 -289 326 -600 441
-60 22 -139 52 -176 66 l-67 27 89 24 c195 52 345 154 398 272 33 74 49 154
40 206 -4 22 -22 92 -40 155 -53 180 -54 220 -5 372 85 266 77 487 -24 689
-69 136 -77 164 -80 294 -2 100 -7 133 -29 195 -15 41 -29 82 -32 91 -4 12 3
18 24 22 109 22 170 211 101 309 -18 25 -20 34 -10 47 51 70 53 165 4 259 -36
70 -74 92 -160 92 l-63 0 0 32 c0 17 -11 50 -25 74 -14 24 -21 45 -16 48 29
19 502 98 651 109 109 8 464 6 598 -4z m-1343 -180 c34 -30 35 -34 35 -99 0
-90 9 -97 98 -81 101 19 141 -4 156 -91 9 -52 -13 -100 -60 -128 -22 -13 -41
-25 -43 -27 -3 -2 19 -25 47 -51 49 -45 52 -51 52 -96 0 -122 -97 -166 -187
-83 -30 26 -49 17 -57 -30 -4 -21 -18 -54 -31 -75 -19 -28 -33 -38 -65 -43
-86 -15 -130 31 -130 133 0 32 -3 61 -6 65 -4 3 -23 -8 -44 -24 -43 -35 -103
-46 -140 -27 -14 8 -36 33 -49 56 -23 43 -23 44 -6 98 18 58 40 80 93 90 18 4
32 9 32 13 0 4 -24 30 -54 60 l-53 52 18 67 c23 88 46 107 114 97 100 -14 100
-15 103 30 4 68 11 85 45 105 47 29 90 26 132 -11z m-804 -112 c11 -6 29 -29
40 -49 54 -104 -19 -213 -133 -198 -74 9 -118 65 -118 152 0 32 43 86 85 104
33 15 93 11 126 -9z m-864 -239 c60 -15 77 -38 77 -103 -2 -95 -51 -145 -146
-145 -63 0 -102 22 -127 72 -37 78 -21 137 48 177 37 21 61 21 148 -1z m4345
-108 c587 -34 1185 -173 1443 -335 59 -37 122 -104 131 -139 23 -94 -156 -219
-375 -260 l-71 -14 6 82 c6 71 4 88 -16 133 -27 64 -96 131 -177 171 -210 106
-688 182 -1154 182 -375 0 -657 -46 -723 -119 -26 -28 -45 -98 -52 -184 -8
-114 -3 -108 -72 -92 -79 19 -159 55 -242 110 -119 79 -157 159 -109 230 31
46 114 101 205 136 217 85 731 127 1206 99z m-4722 -184 c0 -3 -4 -8 -10 -11
-5 -3 -10 -1 -10 4 0 6 5 11 10 11 6 0 10 -2 10 -4z m27 -48 c-3 -8 -6 -5 -6
6 -1 11 2 17 5 13 3 -3 4 -12 1 -19z m1444 -148 c60 -39 132 -62 247 -79 81
-12 152 -44 228 -102 95 -73 100 -85 119 -322 39 -458 2 -789 -111 -1008 -128
-247 -328 -415 -544 -456 -248 -46 -561 58 -789 263 -116 104 -226 293 -292
497 -17 54 -38 101 -46 104 -8 3 -25 0 -38 -7 -14 -7 -39 -13 -56 -12 -111 3
-232 265 -216 466 7 86 37 135 101 165 71 35 107 23 187 -60 82 -85 101 -88
163 -25 30 30 64 83 105 169 53 107 71 134 125 185 79 73 160 113 291 141 211
46 277 77 350 164 l37 44 42 -45 c22 -25 66 -62 97 -82z m-1401 80 c0 -5 -4
-10 -10 -10 -5 0 -10 5 -10 10 0 6 5 10 10 10 6 0 10 -4 10 -10z m4850 -44
c19 -3 86 -10 149 -16 106 -10 409 -64 420 -75 2 -3 6 -103 8 -223 6 -325 21
-397 97 -443 49 -30 60 -25 79 35 35 109 108 176 180 162 78 -15 127 -88 135
-201 3 -57 -1 -84 -23 -150 -28 -84 -73 -164 -115 -204 -60 -56 -138 -76 -184
-46 -35 23 -55 0 -83 -95 -64 -222 -189 -423 -351 -563 -153 -133 -319 -191
-542 -190 -130 0 -192 13 -295 64 -107 52 -178 110 -259 210 -115 144 -196
329 -231 533 -25 144 -37 493 -25 701 9 168 36 445 45 471 3 11 72 25 175 38
47 6 776 -2 820 -8z m1224 -501 c57 -75 190 -295 255 -424 84 -166 166 -357
220 -513 112 -325 199 -822 189 -1075 l-3 -83 -75 43 c-177 100 -466 229 -698
312 -52 19 -107 46 -127 63 -19 17 -91 70 -160 118 -69 48 -139 102 -155 120
-36 41 -45 96 -37 223 6 87 11 107 56 206 27 61 57 135 66 166 l18 56 58 6
c74 6 130 38 198 112 93 102 151 257 151 406 0 94 -17 154 -63 218 l-36 50 42
15 c62 21 72 20 101 -19z m-2393 -167 c1 -84 4 -210 7 -281 4 -70 5 -127 3
-127 -14 0 -77 82 -97 125 -36 76 -47 148 -41 255 8 128 12 139 61 161 68 31
66 35 67 -133z m-4067 -436 c16 -53 31 -105 33 -115 7 -29 -26 -125 -83 -239
-102 -203 -122 -304 -88 -433 18 -72 53 -133 108 -193 61 -66 119 -102 231
-141 56 -20 102 -40 103 -46 0 -5 -54 -35 -121 -65 -222 -101 -394 -195 -526
-287 l-64 -45 6 144 c8 152 10 175 33 365 27 224 107 570 178 768 50 139 150
385 156 385 3 0 18 -44 34 -98z m1021 -838 c279 -198 610 -244 858 -120 l65
33 11 -61 c25 -139 101 -232 251 -304 52 -25 97 -47 99 -48 7 -6 -42 -134 -68
-175 -63 -101 -221 -196 -406 -246 -94 -26 -113 -28 -305 -28 -192 1 -212 2
-315 29 -332 85 -571 228 -706 419 -27 38 -46 74 -43 78 3 5 40 33 82 61 98
66 192 160 220 221 33 70 52 162 52 252 l0 80 63 -67 c34 -37 98 -93 142 -124z
m4730 44 l7 -83 -48 -43 c-73 -65 -229 -166 -325 -211 -217 -102 -370 -116
-513 -48 -110 52 -234 154 -290 237 -26 40 -20 55 13 31 47 -34 171 -89 241
-108 95 -25 299 -23 402 5 153 42 277 111 414 231 43 39 82 70 85 71 4 0 10
-37 14 -82z m73 -256 c-3 -32 -27 -121 -53 -197 -50 -152 -204 -506 -220 -509
-16 -2 -345 420 -345 443 0 3 33 14 73 24 126 30 377 166 502 271 17 14 34 25
39 26 5 0 6 -26 4 -58z m-1173 -114 c27 -26 85 -68 128 -93 42 -26 77 -51 77
-56 0 -10 -276 -365 -291 -374 -14 -9 -36 107 -69 354 -24 187 -25 240 -3 286
l17 36 46 -53 c25 -29 67 -74 95 -100z m410 -184 c19 -8 135 -177 134 -196 0
-7 -19 -51 -43 -98 -48 -97 -49 -98 -181 -85 l-70 6 -33 94 c-33 91 -33 94
-17 127 20 37 93 139 109 150 13 9 78 10 101 2z m-4676 -289 c97 -50 145 -229
85 -321 -14 -21 -42 -50 -62 -63 -44 -29 -128 -40 -153 -19 -9 7 -36 78 -59
158 -24 80 -46 153 -51 162 -7 13 3 25 52 57 51 34 70 41 111 41 27 0 62 -7
77 -15z m5108 -269 c-15 -37 -168 -408 -183 -441 l-17 -40 -18 125 c-10 69
-30 200 -44 293 -15 92 -24 178 -21 191 3 13 19 54 36 91 l30 67 110 -138 c61
-75 109 -142 107 -148z m-702 170 l16 -71 -60 -259 c-34 -142 -61 -268 -61
-279 0 -77 -50 136 -80 340 -19 133 -16 151 42 234 100 145 100 144 114 124 7
-9 20 -49 29 -89z m-2071 22 c3 -18 10 -91 16 -163 5 -71 13 -154 17 -183 l6
-52 -34 6 c-97 19 -182 94 -220 193 -47 126 22 231 152 231 58 0 58 0 63 -32z
m2369 -120 c17 -14 38 -162 78 -558 17 -171 19 -225 10 -263 -10 -45 -215
-568 -244 -624 l-14 -26 -7 39 c-4 21 -39 155 -77 298 -38 142 -71 286 -75
320 -6 68 38 345 100 621 50 220 40 205 134 205 47 0 85 -5 95 -12z m-3917
-218 c122 -52 185 -173 150 -291 -22 -77 -67 -133 -131 -164 -46 -23 -61 -26
-112 -20 -32 4 -81 17 -108 30 -41 20 -57 35 -83 80 -28 50 -32 66 -32 128 0
124 58 212 162 248 57 19 89 17 154 -11z m1049 -61 c88 -45 155 -146 155 -232
-1 -41 -33 -113 -62 -137 -65 -54 -174 -76 -244 -50 -117 45 -192 203 -150
315 19 48 78 104 131 123 40 15 121 6 170 -19z m-2400 -48 c179 -83 164 -338
-25 -436 -24 -12 -31 -13 -35 -3 -14 37 -95 401 -95 424 0 34 95 43 155 15z
m805 -11 c0 -5 -2 -10 -4 -10 -3 0 -8 5 -11 10 -3 6 -1 10 4 10 6 0 11 -4 11
-10z m1760 -80 c0 -5 -2 -10 -4 -10 -3 0 -8 5 -11 10 -3 6 -1 10 4 10 6 0 11
-4 11 -10z m393 -365 c20 -8 42 -25 48 -37 22 -42 -8 -279 -47 -373 -13 -32
-15 -33 -68 -29 -81 5 -146 41 -187 106 -30 47 -34 60 -34 123 0 63 3 75 33
118 51 73 104 107 167 107 29 0 69 -7 88 -15z m-2074 -65 c109 -55 170 -211
125 -318 -17 -42 -67 -97 -104 -117 -71 -36 -168 -28 -238 19 -59 39 -112 136
-112 203 0 77 46 148 134 207 50 33 137 36 195 6z m1043 -49 c76 -29 128 -109
128 -198 0 -79 -15 -127 -53 -170 -84 -95 -253 -99 -342 -7 -109 115 -77 303
63 370 68 32 128 34 204 5z m1578 -221 c0 -5 -2 -10 -4 -10 -3 0 -8 5 -11 10
-3 6 -1 10 4 10 6 0 11 -4 11 -10z m-993 -389 c75 -38 123 -125 123 -220 -1
-135 -98 -224 -243 -223 -67 1 -131 41 -172 106 -71 115 -19 297 102 352 40
19 139 11 190 -15z m-1162 -32 c56 -26 110 -86 124 -136 35 -125 -10 -245
-113 -300 -45 -23 -143 -21 -192 5 -102 53 -147 119 -148 217 -1 168 178 285
329 214z m4655 -303 c0 -3 -4 -8 -10 -11 -5 -3 -10 -1 -10 4 0 6 5 11 10 11 6
0 10 -2 10 -4z m-3131 -381 c7 -77 14 -157 17 -177 6 -37 5 -38 -26 -38 -90 0
-155 88 -167 226 -5 64 -3 76 17 109 23 37 80 80 116 87 24 4 28 -15 43 -207z
m-2115 195 c20 0 106 -80 118 -109 6 -14 13 -55 17 -90 l7 -64 -125 129 -126
129 35 6 c19 4 41 5 48 3 8 -2 19 -4 26 -4z m1183 -69 c50 -23 113 -84 136
-133 20 -42 23 -138 6 -189 -23 -67 -108 -135 -183 -145 -55 -8 -125 15 -188
61 -65 48 -82 84 -82 170 0 77 13 111 70 182 56 68 158 91 241 54z m2130 -283
c-3 -8 -6 -5 -6 6 -1 11 2 17 5 13 3 -3 4 -12 1 -19z m-1459 -277 c49 -25 66
-45 99 -116 66 -142 11 -298 -118 -333 -38 -10 -123 -6 -179 8 -115 30 -172
140 -136 263 19 66 89 148 149 176 56 26 137 26 185 2z"/>
<path d="M3993 11680 c-87 -53 -80 -187 12 -226 74 -30 140 -13 170 46 61 118
-71 248 -182 180z"/>
<path d="M3709 10881 c-94 -29 -147 -95 -104 -131 16 -13 43 -11 138 11 73 17
143 3 239 -46 39 -20 76 -34 84 -31 8 3 14 19 14 35 0 53 -101 125 -217 155
-65 17 -112 19 -154 7z"/>
<path d="M3040 10873 c-161 -27 -334 -154 -275 -203 12 -10 27 -6 83 23 126
66 242 83 357 53 60 -16 83 -11 91 19 9 36 -13 65 -69 91 -50 23 -115 29 -187
17z"/>
<path d="M3768 10619 c-81 -30 -92 -188 -17 -258 33 -31 98 -29 133 4 54 50
71 134 40 198 -28 59 -89 80 -156 56z"/>
<path d="M2989 10607 c-45 -35 -67 -118 -46 -177 22 -62 111 -100 168 -70 36
20 52 68 46 139 -4 57 -9 69 -36 93 -24 22 -41 28 -74 28 -23 0 -49 -6 -58
-13z"/>
<path d="M3454 10578 c-19 -31 9 -138 105 -395 l31 -83 -28 -14 c-42 -22 -103
-28 -156 -16 -56 12 -76 2 -76 -37 0 -19 10 -28 47 -45 59 -26 156 -21 226 12
52 25 72 51 69 91 -4 54 -145 451 -170 482 -17 20 -38 22 -48 5z"/>
<path d="M2167 10482 c-10 -10 -17 -26 -17 -36 0 -17 5 -20 50 -30 33 -7 52
-39 61 -105 9 -63 22 -81 47 -64 22 14 21 121 -2 175 -29 69 -103 100 -139 60z"/>
<path d="M3935 10216 c-63 -28 -105 -122 -86 -193 39 -144 209 -160 256 -25
30 90 12 158 -54 207 -39 28 -71 31 -116 11z"/>
<path d="M2743 10191 c-45 -28 -86 -103 -86 -157 0 -88 77 -157 175 -157 39 0
55 6 86 30 54 44 73 82 74 150 2 64 -18 115 -53 134 -11 6 -53 13 -92 16 -60
4 -77 1 -104 -16z"/>
<path d="M3043 9864 c-7 -3 -13 -19 -13 -35 0 -115 212 -310 373 -343 104 -21
185 9 292 106 41 38 74 80 99 126 39 75 44 107 22 137 -14 19 -16 19 -127 0
-128 -22 -338 -26 -454 -7 -97 15 -178 22 -192 16z m242 -118 c90 -19 180 -19
309 0 65 9 120 14 123 10 15 -15 -39 -64 -111 -101 -141 -72 -270 -58 -389 43
-31 26 -56 50 -56 55 -1 11 56 8 124 -7z"/>
<path d="M6232 11004 c-67 -18 -100 -35 -141 -73 -26 -24 -32 -37 -29 -63 4
-44 23 -46 105 -13 101 40 167 42 302 10 l115 -28 18 23 c26 32 23 45 -19 78
-56 43 -76 52 -159 68 -92 17 -123 17 -192 -2z"/>
<path d="M7070 10994 c-111 -21 -180 -71 -180 -130 0 -41 10 -42 122 -19 98
21 223 22 269 3 19 -9 51 -30 71 -47 61 -53 104 -33 72 35 -24 49 -93 109
-156 132 -57 21 -154 34 -198 26z"/>
<path d="M6268 10743 c-36 -22 -48 -53 -48 -121 0 -91 51 -154 124 -154 45 0
52 5 76 52 36 71 15 201 -38 229 -30 16 -83 13 -114 -6z"/>
<path d="M6651 10712 c-5 -10 -32 -78 -61 -152 -28 -74 -75 -198 -106 -275
-30 -77 -54 -145 -54 -151 0 -5 13 -23 29 -38 39 -38 120 -56 251 -56 124 0
155 11 155 55 l0 30 -120 6 c-130 7 -202 17 -209 28 -3 4 6 32 20 62 61 130
154 399 154 445 0 18 -3 39 -6 48 -8 22 -41 20 -53 -2z"/>
<path d="M7077 10702 c-37 -23 -62 -89 -53 -144 20 -124 110 -176 181 -105 65
65 70 174 10 234 -38 38 -91 44 -138 15z"/>
<path d="M7892 10444 c-40 -16 -74 -71 -103 -161 -24 -77 -19 -103 22 -103 21
0 32 18 63 112 18 54 26 66 60 83 44 23 54 39 37 59 -18 21 -45 25 -79 10z"/>
<path d="M6263 9945 c-11 -30 4 -111 32 -169 34 -72 139 -180 211 -218 135
-72 301 -76 434 -11 82 41 196 159 248 260 45 87 52 123 26 144 -13 11 -30 10
-102 -9 -148 -37 -212 -45 -352 -44 -128 1 -250 16 -403 48 -85 17 -86 17 -94
-1z m267 -140 c114 -21 352 -21 454 -1 44 9 81 14 84 12 12 -13 -80 -91 -142
-121 -171 -84 -371 -56 -482 68 -49 55 -55 72 -21 63 12 -3 60 -13 107 -21z"/>
<path d="M3340 4516 c-97 -20 -171 -82 -216 -181 -36 -77 -57 -223 -50 -335
16 -257 114 -385 303 -398 89 -6 148 9 198 50 34 29 36 33 30 72 -8 47 -30 86
-48 86 -7 0 -30 -9 -52 -20 -142 -72 -235 64 -222 325 7 144 41 214 115 235
26 7 45 5 76 -6 77 -29 83 -29 100 5 9 17 19 50 22 74 5 38 3 45 -17 59 -57
37 -158 51 -239 34z"/>
<path d="M4512 4519 c-139 -27 -204 -159 -156 -318 16 -57 63 -110 193 -220
70 -60 96 -106 85 -155 -10 -48 -31 -66 -79 -66 -43 0 -62 10 -137 77 -57 50
-68 39 -68 -72 0 -101 2 -105 70 -141 27 -14 56 -18 130 -18 106 1 146 13 205
66 60 52 80 100 80 198 0 114 -25 164 -120 240 -38 30 -95 80 -127 111 -65 62
-76 101 -38 139 33 33 77 25 162 -27 42 -26 67 -29 69 -10 4 42 -5 144 -13
154 -26 32 -180 58 -256 42z"/>
<path d="M5403 4520 c-57 -12 -92 -32 -134 -77 -73 -76 -107 -178 -116 -343
-17 -345 100 -513 346 -497 84 5 146 28 200 74 l33 29 0 208 c0 114 -3 211 -7
214 -11 11 -228 19 -248 9 -15 -7 -17 -19 -15 -85 l3 -77 40 -5 40 -5 3 -80
c3 -72 1 -82 -19 -97 -52 -43 -121 -11 -148 69 -19 57 -26 258 -12 338 24 135
80 193 157 160 20 -8 53 -28 74 -45 46 -36 50 -37 79 -6 l23 25 -17 70 c-9 39
-23 75 -29 80 -40 34 -180 56 -253 41z"/>
<path d="M6380 4520 c-62 -8 -113 -35 -154 -81 -72 -79 -104 -177 -113 -349
-12 -240 48 -399 175 -462 40 -19 62 -23 147 -23 89 0 106 3 157 28 31 15 69
42 83 58 25 30 25 31 25 229 0 182 -2 200 -18 209 -10 5 -69 11 -131 12 -131
3 -131 3 -131 -87 0 -69 10 -84 57 -84 l33 0 0 -84 c0 -76 -2 -86 -22 -100
-37 -26 -83 -20 -111 14 -44 51 -52 93 -52 260 0 123 4 166 18 206 37 107 105
126 196 54 57 -45 73 -48 100 -21 20 20 18 50 -9 138 -16 53 -47 67 -185 87
-11 2 -40 0 -65 -4z"/>
<path d="M9423 4520 c-126 -26 -179 -105 -171 -250 6 -96 33 -148 115 -217 32
-26 82 -71 111 -99 49 -46 55 -55 59 -101 7 -64 -17 -93 -75 -93 -41 0 -64 13
-129 72 -68 61 -76 53 -74 -70 1 -83 2 -88 30 -114 61 -55 224 -62 320 -14 88
45 131 123 131 239 0 121 -37 177 -198 300 -71 54 -102 98 -102 144 0 24 7 37
25 49 31 20 71 12 142 -27 80 -44 83 -42 83 52 l0 80 -52 24 c-60 27 -153 38
-215 25z"/>
<path d="M725 4512 l-130 -3 0 -445 0 -445 22 -5 c12 -3 102 -4 200 -2 160 3
183 6 225 27 151 73 173 340 36 427 -56 36 -55 36 -40 41 7 3 26 16 43 30 101
86 91 264 -19 334 -60 38 -123 46 -337 41z m186 -170 c26 -23 31 -35 31 -74 1
-27 -6 -57 -15 -71 -18 -27 -73 -50 -109 -45 -22 3 -23 7 -26 111 l-3 107 46
0 c35 0 52 -6 76 -28z m12 -364 c36 -19 46 -40 47 -95 0 -40 -5 -58 -23 -78
-24 -28 -87 -46 -132 -37 -25 4 -25 5 -25 106 0 57 3 106 7 109 11 11 103 8
126 -5z"/>
<path d="M1427 4506 c-138 -50 -206 -179 -214 -411 -11 -307 86 -477 283 -493
204 -16 318 108 344 374 21 226 -26 413 -122 486 -75 56 -202 75 -291 44z
m141 -162 c12 -8 29 -31 37 -51 35 -82 43 -338 14 -445 -11 -41 -50 -78 -84
-78 -37 0 -73 37 -90 93 -35 114 -29 372 11 448 23 46 73 61 112 33z"/>
<path d="M1924 4509 c-3 -6 -6 -209 -6 -452 l0 -442 78 -3 c46 -2 81 1 88 8 7
7 10 85 7 238 -1 125 -1 225 2 222 3 -3 57 -110 121 -237 l116 -233 64 0 c39
0 67 5 73 13 5 7 7 84 3 187 -4 96 -5 289 -2 428 3 191 1 256 -8 267 -16 19
-143 21 -157 3 -5 -7 -6 -84 -3 -173 8 -259 11 -258 -100 -34 -52 105 -104
197 -115 204 -24 16 -151 19 -161 4z"/>
<path d="M3835 4497 c-94 -45 -151 -124 -181 -254 -24 -102 -15 -347 15 -425
54 -139 136 -207 260 -216 171 -12 283 78 327 264 22 93 23 305 1 397 -43 174
-126 249 -287 255 -73 2 -92 -1 -135 -21z m175 -165 c19 -19 32 -47 40 -88 15
-68 19 -296 7 -366 -17 -99 -93 -140 -149 -80 -42 43 -50 78 -56 230 -6 200
16 299 72 322 37 15 57 11 86 -18z"/>
<path d="M5836 4511 c-3 -4 -6 -207 -7 -452 l-1 -444 102 0 102 0 0 443 c0
244 -2 445 -5 448 -8 9 -186 14 -191 5z"/>
<path d="M7030 4511 l-104 -6 -17 -115 c-24 -155 -71 -378 -125 -590 -24 -97
-44 -179 -44 -183 0 -4 48 -6 108 -5 l107 3 5 75 5 75 90 0 90 0 10 -75 10
-75 119 -3 118 -3 -5 28 c-3 15 -14 60 -25 98 -11 39 -57 225 -102 415 -79
331 -94 374 -124 368 -6 -1 -58 -4 -116 -7z m40 -268 c0 -5 11 -75 25 -157 13
-83 23 -152 20 -154 -3 -3 -27 -7 -55 -10 -39 -4 -51 -1 -56 12 -10 27 41 316
57 316 5 0 9 -3 9 -7z"/>
<path d="M7477 4514 c-3 -3 -3 -155 0 -337 4 -218 2 -368 -6 -436 -14 -133
-15 -133 98 -129 l86 3 -2 45 c-1 25 -5 127 -9 228 -4 108 -3 182 2 182 5 0
61 -104 124 -230 l114 -231 74 3 75 3 -2 440 c-1 242 -5 443 -9 447 -9 9 -146
13 -160 4 -8 -5 -10 -66 -5 -214 l6 -207 -107 213 c-60 116 -113 212 -119 213
-68 5 -156 7 -160 3z"/>
<path d="M2578 4100 c-1 -225 -2 -427 -2 -447 l-1 -38 212 -3 c194 -2 213 -1
221 15 15 29 25 170 13 177 -6 4 -34 0 -63 -9 -28 -8 -82 -15 -120 -15 l-68 0
0 100 0 100 48 1 c26 1 64 1 84 0 25 -2 39 2 42 11 9 29 13 136 6 148 -5 9
-35 13 -92 14 l-83 1 -3 93 c-2 76 0 93 13 98 8 3 61 1 116 -6 78 -9 104 -9
109 0 10 16 0 142 -13 158 -7 9 -62 12 -213 12 l-204 0 -2 -410z"/>
<path d="M8115 4501 c-3 -5 -10 -46 -16 -91 -14 -101 -9 -108 58 -87 26 9 65
19 87 23 l38 7 -3 -369 -4 -369 99 0 99 0 1 362 c1 199 4 365 9 369 4 4 35 2
70 -5 110 -23 102 -27 100 64 -2 44 -5 86 -8 93 -5 15 -520 18 -530 3z"/>
<path d="M8740 4508 c0 -2 -1 -203 -2 -448 l-1 -445 212 -3 c164 -2 212 0 215
10 2 7 8 47 14 88 12 96 6 105 -62 85 -27 -8 -80 -15 -118 -15 l-68 0 0 100 0
100 74 0 c107 0 106 -1 106 85 0 48 -4 77 -12 82 -7 4 -47 8 -88 8 l-75 0 0
95 0 95 40 0 c22 0 72 -4 111 -8 54 -5 73 -4 76 6 3 6 2 46 -1 87 l-6 75 -207
3 c-115 1 -208 1 -208 0z"/>
<path d="M4385 3331 c-162 -43 -245 -187 -246 -426 0 -111 15 -195 46 -255
103 -199 394 -224 513 -44 94 141 107 417 27 574 -27 54 -89 113 -141 135 -44
18 -157 27 -199 16z m124 -175 c34 -27 53 -97 58 -215 9 -194 -22 -281 -100
-281 -84 0 -117 75 -117 264 1 153 18 213 70 238 35 18 62 16 89 -6z"/>
<path d="M2720 3328 c-1 -2 -1 -187 -2 -413 l0 -410 123 -3 c244 -6 363 62
417 238 23 77 23 275 0 351 -35 111 -121 202 -216 229 -31 8 -321 15 -322 8z
m298 -183 c40 -34 62 -92 69 -186 9 -124 -27 -262 -76 -289 -11 -5 -40 -10
-65 -10 l-46 0 0 255 0 255 44 0 c33 0 52 -7 74 -25z"/>
<path d="M3369 3328 c0 -2 -2 -176 -3 -388 -2 -212 -5 -396 -7 -410 l-4 -25
201 -3 c155 -2 204 1 212 11 6 7 12 46 14 87 3 70 2 75 -17 72 -121 -18 -184
-24 -198 -19 -14 5 -17 21 -17 96 l0 90 83 3 82 3 7 64 c5 42 3 69 -4 78 -7 9
-37 13 -89 13 l-79 0 0 84 c0 99 -5 96 125 85 50 -4 92 -5 95 -3 6 6 0 146 -6
156 -5 7 -393 12 -395 6z"/>
<path d="M4875 3318 c-3 -7 -4 -193 -3 -413 l3 -400 205 0 205 0 9 83 c4 46 6
86 3 89 -3 3 -54 0 -112 -7 -58 -7 -109 -9 -113 -5 -4 4 -7 154 -7 333 l0 327
-93 3 c-68 2 -94 -1 -97 -10z"/>
<path d="M5376 3315 c-3 -9 -4 -26 -1 -38 8 -41 14 -562 7 -656 -5 -60 -4 -98
3 -108 8 -11 31 -13 100 -11 l90 3 0 410 0 410 -96 3 c-81 2 -98 0 -103 -13z"/>
<path d="M5700 3323 c0 -5 -1 -190 -1 -413 l-1 -405 88 0 89 0 -4 145 c-2 80
-4 175 -5 213 -2 65 6 85 17 50 4 -10 53 -106 110 -213 l103 -195 78 0 78 0 2
408 c1 468 13 421 -104 415 l-65 -3 3 -205 3 -205 -97 185 c-133 257 -109 230
-209 230 -47 0 -85 -3 -85 -7z"/>
<path d="M6389 3323 c0 -5 0 -163 0 -353 1 -190 -2 -368 -7 -397 -6 -34 -5
-56 2 -63 13 -13 250 -13 316 1 175 37 271 222 249 475 -14 156 -78 260 -194
315 -58 28 -66 29 -212 29 -84 0 -153 -3 -154 -7z m300 -178 c48 -41 66 -103
66 -230 0 -126 -13 -181 -54 -224 -25 -27 -36 -31 -80 -31 l-51 0 0 255 0 255
44 0 c33 0 52 -7 75 -25z"/>
<path d="M7165 3318 c-2 -7 -11 -55 -20 -105 -22 -135 -92 -430 -132 -563 -20
-63 -36 -122 -37 -130 -1 -12 17 -15 104 -15 l105 0 3 68 3 67 88 0 c98 0 101
-2 101 -77 0 -62 1 -63 126 -63 63 0 114 3 114 8 0 4 -9 36 -21 72 -11 36 -58
216 -105 399 -47 184 -88 339 -90 343 -9 14 -234 10 -239 -4z m154 -387 c12
-73 21 -134 19 -136 -2 -1 -24 -6 -51 -9 -40 -6 -48 -5 -54 11 -7 17 31 266
44 286 11 17 20 -16 42 -152z"/>
</g>
</svg>
